<?xml version="1.0" encoding="utf-8"?>
<svg width="1200" height="720" viewBox="0 0 1200 720" xmlns="http://www.w3.org/2000/svg" preserveAspectRatio="xMidYMid meet" role="img" aria-hidden="true">
  <defs>
    <!-- soft paper gradient -->
    <linearGradient id="g-paper" x1="0" x2="0" y1="0" y2="1">
      <stop offset="0%" stop-color="#fffdf9"/>
      <stop offset="100%" stop-color="#fff6ee"/>
    </linearGradient>

    <!-- wave gradient -->
    <linearGradient id="g-wave" x1="0" x2="1" y1="0" y2="1">
      <stop offset="0%" stop-color="#ffdca8"/>
      <stop offset="45%" stop-color="#fbbf6b"/>
      <stop offset="100%" stop-color="#f28a2e"/>
    </linearGradient>

    <!-- leaf gradients -->
    <linearGradient id="g-leaf-gold" x1="0" x2="1">
      <stop offset="0" stop-color="#f5b95a"/>
      <stop offset="1" stop-color="#b86b21"/>
    </linearGradient>
    <linearGradient id="g-leaf-olive" x1="0" x2="1">
      <stop offset="0" stop-color="#9db65a"/>
      <stop offset="1" stop-color="#6b8b3a"/>
    </linearGradient>

    <!-- subtle grain filter -->
    <filter id="grain">
      <feTurbulence type="fractalNoise" baseFrequency="0.9" numOctaves="2" stitchTiles="stitch" result="n" />
      <feColorMatrix type="saturate" values="0" result="mono"/>
      <feBlend in="SourceGraphic" in2="mono" mode="overlay" />
      <feComponentTransfer>
        <feFuncA type="table" tableValues="0 0.06"/>
      </feComponentTransfer>
    </filter>

    <!-- soft drop shadow for shapes -->
    <filter id="softShadow" x="-50%" y="-50%" width="200%" height="200%">
      <feGaussianBlur stdDeviation="14" result="b"/>
      <feOffset dx="0" dy="8" result="o"/>
      <feBlend in="SourceGraphic" in2="o" result="blend"/>
    </filter>
  </defs>

  <!-- background -->
  <rect width="100%" height="100%" fill="url(#g-paper)" />

  <!-- decorative faint diagonal gradient overlay for depth -->
  <rect width="100%" height="100%" fill="url(#g-wave)" opacity="0.06" transform="rotate(-20 600 360)"/>

  <!-- big wave shape (foreground) -->
  <g filter="url(#softShadow)">
    <path d="M0,420 C180,360 360,460 540,420 C720,380 900,460 1200,420 L1200,720 L0,720 Z"
          fill="url(#g-wave)" opacity="1"/>
  </g>

  <!-- leaf cluster (left) -->
  <g transform="translate(80,120) rotate(-10)">
    <ellipse cx="0" cy="0" rx="36" ry="18" fill="url(#g-leaf-gold)" opacity="0.95" transform="rotate(-18)"/>
    <path d="M-6,-18 C10,-12 28,-6 36,6 C22,-2 6,-6 -6,-18 Z" fill="url(#g-leaf-olive)" opacity="0.95"/>
  </g>

  <!-- leaf cluster (right) -->
  <g transform="translate(980,60) rotate(12)">
    <path d="M0,0 C18,8 36,10 52,4 C44,2 28,-2 10,-6 Z" fill="url(#g-leaf-olive)" opacity="0.95" transform="rotate(8)"/>
    <ellipse cx="30" cy="26" rx="30" ry="14" fill="url(#g-leaf-gold)" opacity="0.95"/>
  </g>

  <!-- soft grain overlay on top, subtle -->
  <rect width="100%" height="100%" fill="#fff" opacity="0" filter="url(#grain)"/>

  <!-- decorative small leaf accents -->
  <g fill-opacity="0.95" transform="translate(840,300) rotate(-8)" opacity="0.95">
    <path d="M0 0 C6 -6 18 -10 30 -6 C20 -2 10 -1 0 0 Z" fill="#f6c07a"/>
    <path d="M10 12 C18 8 28 6 36 10 C24 14 16 15 10 12 Z" fill="#8aa645"/>
  </g>
</svg>
