<?xml version="1.0" encoding="utf-8"?>
<svg width="1200" height="720" viewBox="0 0 1200 720" xmlns="http://www.w3.org/2000/svg" preserveAspectRatio="xMidYMid meet" role="img" aria-hidden="true">
  <defs>
    <!-- dark paper gradient -->
    <linearGradient id="g-paper-dark" x1="0" x2="0" y1="0" y2="1">
      <stop offset="0%" stop-color="#0d1618"/>
      <stop offset="100%" stop-color="#071114"/>
    </linearGradient>

    <!-- wave gradient (dark) -->
    <linearGradient id="g-wave-dark" x1="0" x2="1" y1="0" y2="1">
      <stop offset="0%" stop-color="#2b1a10"/>
      <stop offset="50%" stop-color="#5d2a0f"/>
      <stop offset="100%" stop-color="#bd5b1b"/>
    </linearGradient>

    <linearGradient id="g-leaf-gold-dark" x1="0" x2="1">
      <stop offset="0" stop-color="#f6c07a"/>
      <stop offset="1" stop-color="#d08a35"/>
    </linearGradient>

    <linearGradient id="g-leaf-olive-dark" x1="0" x2="1">
      <stop offset="0" stop-color="#99b85a"/>
      <stop offset="1" stop-color="#7da24a"/>
    </linearGradient>

    <!-- grain -->
    <filter id="grain-dark">
      <feTurbulence type="fractalNoise" baseFrequency="0.85" numOctaves="2" stitchTiles="stitch" result="n"/>
      <feColorMatrix type="saturate" values="0" result="mono"/>
      <feBlend in="SourceGraphic" in2="mono" mode="overlay"/>
      <feComponentTransfer>
        <feFuncA type="table" tableValues="0 0.04"/>
      </feComponentTransfer>
    </filter>

    <filter id="softShadowDark" x="-50%" y="-50%" width="200%" height="200%">
      <feGaussianBlur stdDeviation="18" result="b"/>
      <feOffset dx="0" dy="10" result="o"/>
      <feBlend in="SourceGraphic" in2="o" result="blend"/>
    </filter>
  </defs>

  <rect width="100%" height="100%" fill="url(#g-paper-dark)" />

  <!-- subtle radial vignette for cozy depth -->
  <radialGradient id="vign" cx="80%" cy="10%">
    <stop offset="0%" stop-color="#00000000"/>
    <stop offset="100%" stop-color="#00000088"/>
  </radialGradient>
  <rect width="100%" height="100%" fill="url(#vign)" opacity="0.16"/>

  <!-- wave -->
  <g filter="url(#softShadowDark)">
    <path d="M0,420 C180,370 360,470 540,430 C720,390 900,470 1200,420 L1200,720 L0,720 Z"
          fill="url(#g-wave-dark)"/>
  </g>

  <!-- leaf accents -->
  <g transform="translate(100,120) rotate(-12)">
    <ellipse cx="0" cy="0" rx="36" ry="18" fill="url(#g-leaf-gold-dark)" opacity="0.95"/>
    <path d="M-6,-18 C10,-12 28,-6 36,6 C22,-2 6,-6 -6,-18 Z" fill="url(#g-leaf-olive-dark)" opacity="0.95"/>
  </g>

  <g transform="translate(940,80) rotate(6)">
    <path d="M0,0 C18,8 36,10 52,4 C44,2 28,-2 10,-6 Z" fill="#d28b32" opacity="0.95"/>
    <ellipse cx="30" cy="26" rx="30" ry="14" fill="#a1b45b" opacity="0.9"/>
  </g>

  <!-- grain overlay -->
  <rect width="100%" height="100%" fill="#000" opacity="0" filter="url(#grain-dark)"/>

  <!-- subtle sparkles/embers -->
  <g fill="#ffb87a" opacity="0.12">
    <circle cx="860" cy="200" r="3"/>
    <circle cx="920" cy="150" r="2.2"/>
    <circle cx="780" cy="260" r="2.6"/>
  </g>
</svg>
